<?xml version="1.0" standalone="no"?>
<!DOCTYPE svg PUBLIC "-//W3C//DTD SVG 20010904//EN"
 "http://www.w3.org/TR/2001/REC-SVG-20010904/DTD/svg10.dtd">
<svg version="1.0" xmlns="http://www.w3.org/2000/svg"
 width="480.000000pt" height="480.000000pt" viewBox="0 0 480.000000 480.000000"
 preserveAspectRatio="xMidYMid meet">
<metadata>
Created by potrace 1.15, written by Peter Selinger 2001-2017
</metadata>
<g transform="translate(0.000000,480.000000) scale(0.100000,-0.100000)"
fill="#000000" stroke="none">
<path d="M4051 4284 c-38 -17 -146 -97 -301 -223 -246 -200 -534 -474 -854
-811 -381 -401 -493 -525 -611 -680 -180 -237 -271 -312 -376 -312 -25 0 -61
8 -80 17 -19 10 -124 106 -234 214 -224 220 -321 309 -545 501 -85 73 -159
142 -163 154 -5 11 -18 31 -29 43 -42 44 -76 33 -335 -109 -40 -21 -76 -44
-79 -50 -4 -6 13 1 37 16 24 15 74 43 112 62 37 19 92 48 122 64 71 38 116 39
144 4 12 -15 21 -32 21 -38 0 -7 55 -59 122 -116 195 -167 348 -304 343 -308
-2 -2 -50 38 -107 89 -57 52 -163 145 -235 207 -73 63 -133 120 -133 128 0 23
-38 54 -66 54 -15 0 -87 -31 -161 -70 -354 -183 -543 -363 -543 -515 0 -128
105 -242 408 -441 179 -119 224 -154 336 -263 207 -203 404 -449 602 -752 99
-150 144 -195 208 -204 141 -21 278 51 564 297 67 59 177 146 245 194 527 379
1014 766 1418 1128 80 72 213 191 296 264 352 310 539 543 550 687 4 46 -2 62
-71 201 -214 431 -434 628 -605 545 -71 -33 -367 -270 -549 -438 -51 -47 -95
-84 -97 -81 -9 9 319 292 505 435 119 92 163 113 229 113 165 0 376 -242 565
-648 39 -84 44 -129 22 -197 -3 -11 1 -4 10 15 27 59 15 110 -65 270 -96 192
-187 326 -291 431 -101 101 -168 139 -244 138 -28 0 -66 -7 -85 -15z m139
-356 c109 -33 218 -124 274 -228 23 -43 31 -71 34 -131 4 -70 2 -84 -25 -141
-43 -91 -99 -160 -292 -365 -367 -390 -854 -814 -1436 -1248 -355 -265 -890
-644 -948 -671 -137 -63 -228 -10 -351 207 -32 57 -82 135 -110 174 -180 245
-471 541 -751 764 -154 123 -232 197 -256 243 -23 44 -25 115 -4 163 33 81
183 203 350 288 l70 35 60 -50 c210 -176 432 -383 727 -680 l338 -339 41 3
c40 2 46 7 167 148 240 277 532 598 711 783 68 70 122 129 120 132 -9 9 -477
-497 -744 -805 -88 -101 -175 -200 -194 -219 l-33 -36 30 40 c49 65 338 393
556 630 292 319 839 872 1113 1126 182 169 375 231 553 177z m-1061 -465
c-371 -375 -688 -719 -816 -886 -175 -230 -261 -310 -361 -337 -35 -9 -53 -8
-97 5 -51 14 -70 31 -282 242 -126 125 -184 188 -131 139 54 -49 151 -143 215
-211 129 -134 180 -167 253 -167 105 0 205 82 383 318 107 142 237 287 570
639 170 179 527 535 537 535 2 0 -120 -125 -271 -277z"/>
<path d="M3873 3896 c-46 -18 -102 -46 -125 -62 -56 -39 -384 -353 -638 -611
-188 -190 -183 -186 60 53 378 372 532 517 586 552 26 18 83 46 127 63 76 29
87 30 191 27 95 -3 119 -7 168 -30 72 -33 152 -107 190 -176 17 -29 33 -51 35
-48 12 12 -91 148 -138 182 -88 65 -149 84 -269 84 -96 0 -112 -3 -187 -34z"/>
<path d="M4475 3558 c-1 -81 -4 -100 -27 -144 -48 -92 -147 -204 -432 -490
-393 -393 -702 -658 -1226 -1054 -302 -228 -939 -680 -995 -706 -66 -31 -126
-31 -179 0 -46 27 -78 68 -160 208 -115 196 -266 378 -528 633 -161 157 -212
202 -448 392 -108 87 -150 147 -150 215 0 88 53 163 172 245 83 57 219 133
237 133 13 0 213 -168 356 -300 211 -194 425 -405 579 -568 93 -99 180 -185
193 -191 40 -18 51 -12 12 7 -20 10 -116 101 -224 215 -221 233 -469 471 -726
695 l-184 161 -85 -46 c-236 -127 -340 -233 -340 -348 0 -91 33 -129 280 -326
184 -147 515 -473 650 -639 98 -120 146 -190 226 -328 26 -45 61 -98 77 -117
61 -75 151 -94 242 -51 54 25 684 472 980 694 577 435 1038 837 1407 1230 184
195 236 259 274 335 28 54 41 154 28 205 -7 24 -9 10 -9 -60z"/>
<path d="M4683 3362 c-17 -31 -61 -93 -96 -137 -77 -95 -317 -332 -472 -465
-60 -52 -155 -135 -210 -185 -337 -307 -684 -589 -1134 -923 -427 -317 -484
-361 -619 -476 -214 -182 -351 -253 -473 -244 -91 7 -122 35 -251 227 -311
465 -582 769 -834 936 -65 43 -157 103 -204 134 -102 67 -238 199 -271 261
-14 26 -26 72 -30 110 l-6 65 -1 -58 c-2 -44 4 -70 24 -110 39 -78 178 -208
319 -301 66 -43 150 -99 187 -123 223 -148 484 -442 783 -880 173 -254 189
-268 309 -268 74 0 89 3 157 37 99 49 185 111 359 259 80 68 193 158 250 199
480 342 1071 812 1420 1129 52 48 165 148 250 223 279 243 474 452 555 591 15
26 26 50 24 52 -2 2 -18 -22 -36 -53z"/>
</g>
</svg>
