<?xml version="1.0" standalone="no"?>
<!DOCTYPE svg PUBLIC "-//W3C//DTD SVG 20010904//EN"
 "http://www.w3.org/TR/2001/REC-SVG-20010904/DTD/svg10.dtd">
<svg version="1.0" xmlns="http://www.w3.org/2000/svg"
 width="480.000000pt" height="480.000000pt" viewBox="0 0 480.000000 480.000000"
 preserveAspectRatio="xMidYMid meet">
<metadata>
Created by potrace 1.15, written by Peter Selinger 2001-2017
</metadata>
<g transform="translate(0.000000,480.000000) scale(0.100000,-0.100000)"
fill="#000000" stroke="none">
<path d="M2373 4623 c-35 -2 -63 -8 -63 -13 0 -6 -11 -10 -25 -10 -35 0 -207
-39 -220 -50 -5 -5 -37 -19 -70 -31 -33 -12 -62 -25 -65 -29 -3 -4 -25 -18
-50 -30 -60 -30 -90 -56 -214 -178 -81 -80 -109 -116 -126 -158 -12 -30 -26
-54 -30 -54 -4 0 -18 -33 -31 -72 -13 -40 -27 -75 -31 -78 -3 -3 -14 -54 -24
-115 -15 -89 -19 -165 -19 -403 l0 -293 -50 -23 c-27 -13 -70 -30 -95 -37 -25
-7 -47 -16 -50 -19 -3 -3 -27 -14 -55 -25 -27 -10 -79 -41 -115 -69 -36 -28
-67 -50 -70 -51 -2 0 -5 -5 -5 -11 0 -6 -8 -18 -18 -28 -10 -10 -27 -37 -39
-60 -11 -22 -24 -43 -28 -46 -5 -3 -18 -37 -31 -75 -12 -39 -25 -72 -29 -75
-4 -3 -16 -48 -25 -100 -26 -141 -31 -481 -11 -770 11 -167 14 -300 10 -460
-6 -219 7 -471 25 -495 5 -5 16 -42 26 -82 10 -42 27 -84 41 -100 13 -15 24
-31 24 -35 0 -4 18 -27 39 -52 22 -25 43 -55 46 -67 8 -24 18 -38 50 -72 43
-45 79 -66 144 -83 36 -10 68 -21 71 -25 6 -8 366 -49 429 -49 22 0 41 -4 43
-9 6 -17 619 -44 858 -38 212 5 389 21 400 36 3 4 52 18 109 30 58 13 112 27
120 32 9 4 52 18 96 30 44 12 82 25 85 29 3 4 25 17 50 30 25 12 57 33 72 47
16 15 31 22 39 18 8 -5 10 -4 5 4 -4 6 5 23 21 40 74 75 151 222 179 346 10
44 21 82 25 85 8 6 35 234 45 373 4 53 10 97 14 97 4 0 10 37 14 83 9 113 45
348 56 372 16 35 43 295 43 425 0 128 -21 270 -47 320 -7 14 -21 49 -30 77
-10 29 -22 55 -27 59 -5 3 -18 22 -28 42 -23 43 -75 102 -146 163 -27 23 -49
47 -47 52 1 4 -2 6 -7 3 -10 -7 -61 13 -61 24 0 4 -22 17 -50 30 -27 13 -50
27 -50 32 0 5 -5 6 -11 3 -13 -9 -1 64 15 84 14 18 12 805 -2 835 -6 12 -18
52 -27 89 -10 37 -23 73 -29 80 -7 7 -23 30 -36 52 -13 22 -32 49 -42 59 -10
11 -18 25 -18 32 0 7 -11 26 -25 42 -13 16 -21 33 -17 37 4 5 2 5 -5 1 -6 -3
-18 2 -25 11 -7 10 -36 36 -65 57 -29 22 -50 42 -48 45 1 3 -8 7 -22 8 -14 0
-29 6 -33 13 -4 6 -11 12 -16 12 -5 0 -18 4 -29 8 -11 4 -48 15 -82 25 -35 10
-63 21 -63 25 0 3 -46 17 -102 30 -57 13 -106 28 -110 34 -7 10 -200 16 -305
9z m385 -449 c4 -6 21 -14 37 -18 17 -4 51 -17 77 -28 45 -19 48 -24 69 -87
12 -36 25 -68 29 -71 9 -6 50 -127 50 -147 0 -7 4 -13 9 -13 22 0 34 -128 39
-397 l4 -283 -219 -1 c-120 0 -366 -4 -548 -8 -281 -7 -333 -6 -354 6 -13 8
-36 13 -51 11 -23 -3 -29 0 -32 16 -8 43 11 354 26 421 9 39 25 122 37 185 11
63 24 117 28 120 3 3 14 30 24 61 13 43 28 66 61 95 70 62 119 95 133 90 7 -3
12 0 10 6 -1 6 12 16 28 22 17 6 32 14 35 18 13 18 496 20 508 2z m-280 -2249
c46 -19 125 -105 147 -159 10 -23 21 -49 26 -58 12 -23 12 -218 0 -218 -5 0
-11 -19 -15 -41 -6 -39 -29 -68 -90 -117 -58 -46 -177 -58 -264 -27 -29 11
-52 22 -52 26 0 4 -11 10 -25 13 -14 4 -23 11 -20 15 3 5 -3 7 -12 5 -10 -2
-25 2 -33 9 -27 22 -68 91 -79 132 -14 52 -14 164 0 219 13 52 90 142 113 133
9 -4 15 -3 13 2 -3 10 54 58 84 70 39 16 165 13 207 -4z"/>
</g>
</svg>
