<?xml version="1.0" standalone="no"?>
<!DOCTYPE svg PUBLIC "-//W3C//DTD SVG 20010904//EN"
 "http://www.w3.org/TR/2001/REC-SVG-20010904/DTD/svg10.dtd">
<svg version="1.0" xmlns="http://www.w3.org/2000/svg"
 width="480.000000pt" height="480.000000pt" viewBox="0 0 480.000000 480.000000"
 preserveAspectRatio="xMidYMid meet">
<metadata>
Created by potrace 1.15, written by Peter Selinger 2001-2017
</metadata>
<g transform="translate(0.000000,480.000000) scale(0.100000,-0.100000)"
fill="#000000" stroke="none">
<path d="M480 4390 c-50 -26 -127 -111 -150 -166 -27 -62 -27 -154 0 -210 12
-23 46 -73 78 -110 31 -38 83 -104 115 -147 32 -43 118 -140 191 -215 73 -75
160 -175 193 -222 68 -96 150 -181 268 -280 44 -37 88 -76 98 -87 17 -19 16
-21 -40 -49 -116 -59 -143 -138 -143 -420 0 -236 34 -368 112 -441 40 -37 126
-74 221 -95 78 -17 143 -21 440 -25 l347 -6 0 -148 0 -149 -159 0 c-89 0 -172
-5 -188 -11 -64 -24 -110 -95 -123 -192 -16 -110 34 -101 -605 -107 -540 -5
-554 -6 -582 -26 -47 -34 -63 -79 -63 -174 0 -104 32 -257 59 -284 19 -19 41
-19 618 -20 l598 -1 35 -73 c20 -39 46 -79 58 -87 19 -14 79 -15 464 -13 333
3 453 7 483 17 26 9 67 39 117 90 44 43 89 79 105 82 44 10 224 10 401 -1
l164 -10 126 -121 c145 -138 254 -224 338 -265 111 -54 243 -42 355 32 81 53
94 76 94 161 0 67 -2 75 -40 129 -51 74 -151 158 -253 213 -125 67 -238 165
-527 455 -155 156 -334 325 -420 396 -82 68 -265 237 -406 375 -141 137 -303
295 -360 350 -58 55 -147 145 -199 201 -52 55 -151 150 -220 211 -161 143
-389 373 -482 488 -96 117 -355 403 -532 586 -78 80 -179 186 -226 235 -104
111 -181 154 -269 154 -35 -1 -69 -8 -91 -20z m1162 -1813 c59 -28 136 -99
154 -143 22 -53 18 -117 -8 -141 -82 -75 -229 -80 -312 -11 -92 75 -104 212
-24 284 30 28 44 32 98 33 27 0 64 -8 92 -22z"/>
<path d="M1985 4168 c-66 -5 -238 -11 -382 -15 -144 -5 -265 -11 -268 -15 -11
-11 310 -357 358 -388 56 -35 94 -82 109 -133 10 -35 50 -80 239 -269 l227
-228 144 1 c446 2 969 18 1063 33 133 21 222 49 272 85 60 44 111 150 123 256
5 44 14 114 21 155 14 94 6 207 -21 268 -69 155 -211 195 -745 207 -143 3
-390 14 -550 25 -372 24 -444 27 -590 18z"/>
<path d="M2472 2951 c10 -27 188 -216 278 -296 58 -50 204 -190 325 -311 121
-121 265 -257 320 -303 99 -82 100 -82 144 -76 76 11 166 44 209 75 59 43 110
150 122 255 5 44 14 114 21 155 14 94 6 207 -21 268 -69 155 -215 195 -750
207 -236 5 -505 18 -608 30 -24 3 -42 1 -40 -4z"/>
</g>
</svg>
