<?xml version="1.0" standalone="no"?>
<!DOCTYPE svg PUBLIC "-//W3C//DTD SVG 20010904//EN"
 "http://www.w3.org/TR/2001/REC-SVG-20010904/DTD/svg10.dtd">
<svg version="1.0" xmlns="http://www.w3.org/2000/svg"
 width="480.000000pt" height="480.000000pt" viewBox="0 0 480.000000 480.000000"
 preserveAspectRatio="xMidYMid meet">
<metadata>
Created by potrace 1.15, written by Peter Selinger 2001-2017
</metadata>
<g transform="translate(0.000000,480.000000) scale(0.100000,-0.100000)"
fill="#000000" stroke="none">
<path d="M1603 4243 c-13 -2 -23 -8 -23 -12 0 -4 -17 -13 -37 -20 -21 -8 -44
-20 -51 -28 -8 -8 -22 -11 -30 -8 -9 3 -13 3 -10 -1 4 -4 -21 -28 -55 -55 -34
-27 -69 -55 -77 -63 -8 -8 -28 -18 -43 -21 -15 -4 -27 -11 -27 -16 0 -5 -14
-16 -30 -24 -36 -19 -57 -35 -112 -90 -23 -22 -45 -39 -50 -37 -5 1 -6 -3 -2
-9 4 -7 1 -17 -7 -23 -8 -6 -29 -33 -47 -61 -17 -27 -35 -55 -40 -61 -5 -5
-15 -27 -21 -47 -7 -20 -16 -37 -19 -37 -4 0 -15 -22 -25 -50 -10 -27 -22 -50
-26 -50 -5 0 -12 -11 -15 -24 -3 -14 -12 -31 -19 -38 -12 -12 -23 -31 -74
-128 -10 -19 -24 -41 -30 -48 -7 -7 -16 -24 -19 -38 -3 -13 -10 -24 -15 -24
-4 0 -16 -25 -25 -55 -10 -30 -21 -55 -24 -55 -4 0 -13 -27 -20 -60 -7 -33
-16 -60 -20 -60 -9 0 -30 -135 -30 -195 0 -25 -4 -45 -10 -45 -6 0 -10 -68
-10 -185 0 -117 4 -185 10 -185 6 0 10 -23 10 -51 0 -69 22 -229 31 -229 4 0
13 -33 19 -72 7 -40 16 -77 20 -83 4 -5 10 -55 13 -109 8 -114 26 -216 38
-216 25 0 4 -41 -33 -66 -23 -16 -49 -35 -58 -42 -8 -7 -44 -36 -79 -63 -36
-28 -71 -59 -78 -70 -8 -10 -21 -19 -29 -19 -8 0 -14 -5 -14 -11 0 -5 -4 -7
-10 -4 -5 3 -10 1 -10 -5 0 -7 -7 -9 -16 -6 -8 3 -12 2 -9 -3 3 -5 -4 -12 -15
-16 -11 -3 -20 -10 -20 -15 0 -5 -9 -11 -19 -15 -11 -3 -34 -19 -53 -35 -18
-16 -36 -30 -40 -30 -13 0 -30 -72 -24 -103 4 -18 20 -47 36 -66 26 -31 35
-34 104 -41 42 -4 81 -12 88 -17 7 -6 37 -16 66 -23 28 -6 52 -15 52 -19 0 -4
29 -13 65 -20 36 -7 65 -17 65 -22 0 -5 8 -9 18 -9 27 0 136 -30 142 -39 3 -4
29 -14 58 -21 28 -8 52 -17 52 -21 0 -4 24 -13 53 -19 28 -7 57 -15 62 -19 12
-7 14 -7 95 -26 36 -8 77 -15 93 -15 15 0 27 -4 27 -10 0 -14 133 -13 148 2 9
9 12 9 12 0 0 -8 27 -12 90 -12 53 0 90 4 90 10 0 6 9 10 21 10 33 0 75 30 93
67 19 41 20 116 2 202 -14 61 -12 96 3 86 21 -12 -8 661 -29 675 -8 6 -20 90
-25 176 -2 41 -9 68 -21 84 -26 30 -104 64 -118 50 -5 -5 -18 -10 -27 -10 -10
0 -30 -10 -46 -23 -15 -13 -35 -26 -43 -29 -8 -3 -46 -26 -84 -52 -38 -25 -73
-46 -78 -46 -5 0 -14 -5 -21 -10 -7 -6 -48 -33 -92 -62 -44 -28 -96 -61 -115
-74 -39 -27 -45 -22 -55 38 -4 21 -10 38 -15 38 -4 0 -13 27 -20 60 -7 33 -16
60 -19 60 -4 0 -15 90 -26 199 -10 110 -22 198 -26 196 -21 -14 -22 449 -1
465 4 3 15 45 25 95 10 49 22 92 26 95 4 3 13 26 21 53 7 26 17 47 21 47 5 0
9 6 9 13 0 14 58 132 81 165 9 12 19 19 23 15 4 -4 4 -1 1 8 -3 8 3 26 15 39
11 13 20 27 20 33 0 15 47 67 54 59 4 -3 4 0 1 9 -3 8 2 25 12 37 10 12 29 37
43 57 14 19 33 37 43 40 9 4 17 11 17 16 0 19 156 159 177 159 7 0 13 4 13 10
0 5 14 17 32 26 17 9 36 20 42 25 6 5 29 23 51 40 22 16 48 36 58 44 9 8 22
14 28 12 6 -1 13 7 15 17 3 22 24 37 38 29 5 -3 6 -1 2 5 -8 13 22 44 35 37 5
-4 6 0 3 8 -3 8 2 21 10 30 19 19 21 101 4 123 -50 59 -58 64 -111 63 -29 -1
-62 -4 -74 -6z"/>
<path d="M3162 4210 c-92 -22 -122 -112 -88 -272 12 -58 12 -72 -1 -110 -12
-33 -14 -75 -10 -188 6 -194 28 -464 37 -470 9 -7 21 -90 24 -168 2 -60 5 -66
41 -100 34 -32 45 -37 86 -36 30 0 53 7 64 18 10 9 24 15 31 12 8 -3 13 0 11
6 -1 6 16 21 38 34 22 12 45 27 51 32 5 5 21 15 34 22 14 7 31 20 39 27 8 8
22 12 33 10 10 -3 16 -2 14 2 -3 4 14 19 37 34 23 15 49 31 57 37 8 5 38 24
65 42 28 18 56 39 64 46 18 18 28 3 37 -55 3 -24 10 -43 14 -43 4 0 14 -24 20
-52 7 -29 16 -57 20 -63 4 -5 15 -99 25 -207 10 -108 22 -195 26 -192 21 13
21 -441 0 -456 -4 -3 -14 -45 -24 -94 -9 -49 -20 -92 -25 -95 -5 -3 -14 -27
-22 -53 -7 -27 -16 -48 -20 -48 -4 0 -13 -20 -20 -45 -7 -25 -16 -45 -20 -45
-4 0 -15 -20 -24 -45 -10 -25 -22 -45 -27 -45 -5 0 -9 -7 -9 -15 0 -8 -9 -24
-20 -35 -11 -11 -20 -24 -20 -29 0 -9 -68 -113 -80 -121 -4 -3 -15 -20 -24
-38 -11 -21 -23 -32 -31 -28 -9 3 -12 0 -9 -8 6 -15 -34 -48 -48 -40 -4 3 -5
-1 -2 -9 6 -18 -66 -89 -83 -82 -7 2 -10 -2 -7 -10 4 -8 -7 -20 -27 -30 -18
-10 -41 -26 -52 -36 -12 -10 -27 -19 -34 -19 -7 0 -13 -4 -13 -10 0 -5 -14
-17 -30 -25 -31 -16 -50 -30 -97 -73 -14 -13 -32 -21 -40 -18 -8 3 -11 1 -8
-5 9 -14 -15 -41 -32 -35 -8 3 -11 1 -8 -5 9 -14 -15 -41 -32 -35 -8 3 -11 2
-8 -3 6 -12 -15 -61 -27 -61 -11 0 -10 -88 2 -103 6 -7 18 -23 28 -35 13 -17
31 -25 64 -29 48 -6 148 13 148 27 0 4 14 13 32 19 18 6 42 21 55 32 12 12 29
19 37 16 10 -4 13 -1 10 7 -3 7 7 21 23 31 15 10 37 27 48 37 11 10 30 21 42
24 13 4 23 10 23 14 0 4 14 13 30 20 17 7 30 16 30 21 0 4 9 10 19 14 24 7
125 105 166 160 40 53 52 65 58 59 3 -3 3 3 1 14 -3 10 1 25 8 33 8 8 20 29
27 47 8 18 27 56 42 85 16 28 36 68 45 87 9 19 19 37 23 40 4 3 25 37 46 75
21 39 41 72 45 75 3 3 12 20 19 38 8 17 17 32 21 32 4 0 15 27 25 60 10 33 21
60 25 60 4 0 13 25 20 55 7 30 16 55 20 55 9 0 30 149 30 208 0 23 5 42 10 42
6 0 10 68 10 185 0 117 -4 185 -10 185 -5 0 -10 21 -10 47 0 66 -21 223 -30
223 -4 0 -13 36 -20 80 -7 44 -16 80 -20 80 -4 0 -10 48 -13 108 -7 118 -25
222 -38 222 -18 0 -8 40 13 51 12 6 27 16 32 20 57 47 92 69 103 64 8 -2 12
-1 8 4 -8 14 25 43 42 37 8 -3 12 -2 9 3 -3 4 8 23 24 41 17 19 30 30 30 26 0
-4 10 2 22 14 12 11 26 20 30 20 5 0 14 5 21 10 7 6 35 25 63 43 92 58 123
106 110 168 -6 33 -53 89 -73 89 -7 0 -13 5 -13 10 0 6 -21 10 -46 10 -48 0
-135 18 -144 30 -3 4 -30 13 -60 20 -30 7 -61 17 -67 23 -7 5 -13 6 -13 2 0
-4 -6 -3 -12 3 -7 5 -41 16 -75 22 -35 7 -63 16 -63 20 0 4 -25 12 -55 19 -30
7 -55 16 -55 20 0 5 -31 17 -70 27 -38 10 -70 21 -70 25 0 4 -29 12 -65 19
-36 7 -65 16 -65 20 0 23 -416 40 -498 20z"/>
<path d="M2315 3990 c-60 -4 -111 -8 -112 -9 -1 0 -4 -14 -8 -31 -4 -16 -10
-30 -14 -30 -9 0 -31 -153 -31 -212 0 -20 -6 -38 -12 -40 -10 -4 -12 -117 -10
-514 2 -301 -2 -584 -9 -694 -12 -198 -3 -317 26 -347 8 -8 15 -19 15 -24 0
-5 12 -15 28 -22 15 -6 29 -15 32 -19 3 -4 49 -13 103 -19 53 -7 94 -16 91
-21 -3 -4 33 -8 80 -8 47 0 86 4 86 9 0 5 10 11 23 15 37 9 75 57 88 111 6 28
16 59 21 70 5 11 6 132 3 275 -14 689 -15 873 -6 883 5 7 15 91 22 188 14 203
6 308 -31 358 -11 17 -18 35 -15 41 3 5 0 7 -8 4 -8 -3 -22 2 -30 11 -9 9 -47
19 -89 25 -78 10 -78 10 -243 0z"/>
<path d="M2283 1803 c-18 -2 -33 -8 -33 -13 0 -5 -13 -11 -30 -15 -41 -9 -97
-69 -112 -118 -6 -23 -15 -46 -20 -51 -11 -13 -10 -172 1 -194 5 -9 16 -49 25
-89 13 -61 22 -79 60 -120 l45 -48 80 -3 c82 -4 221 14 221 28 0 4 14 13 30
20 17 7 38 26 47 41 10 16 20 29 24 29 3 0 12 19 19 43 7 23 16 45 21 48 14 8
25 156 17 231 -4 42 -13 74 -23 84 -9 10 -14 25 -12 36 3 10 1 16 -4 13 -4 -3
-17 3 -28 14 -11 11 -39 26 -63 32 -24 7 -46 17 -49 21 -6 9 -170 18 -216 11z"/>
</g>
</svg>
