<?xml version="1.0" standalone="no"?>
<!DOCTYPE svg PUBLIC "-//W3C//DTD SVG 20010904//EN"
 "http://www.w3.org/TR/2001/REC-SVG-20010904/DTD/svg10.dtd">
<svg version="1.0" xmlns="http://www.w3.org/2000/svg"
 width="480.000000pt" height="480.000000pt" viewBox="0 0 480.000000 480.000000"
 preserveAspectRatio="xMidYMid meet">
<metadata>
Created by potrace 1.15, written by Peter Selinger 2001-2017
</metadata>
<g transform="translate(0.000000,480.000000) scale(0.100000,-0.100000)"
fill="#000000" stroke="none">
<path d="M794 4545 c-82 -15 -244 -88 -297 -135 -20 -17 -40 -29 -45 -26 -9 6
-40 -22 -41 -37 -1 -15 -64 -86 -72 -81 -5 3 -6 -1 -3 -9 3 -8 -11 -34 -29
-59 -19 -25 -51 -86 -71 -134 -19 -49 -42 -103 -50 -119 -17 -34 -76 -313 -76
-360 0 -17 -4 -35 -10 -41 -14 -14 -34 -443 -26 -556 9 -111 18 -120 62 -63
14 19 31 32 38 28 6 -3 8 -3 4 1 -8 10 82 122 95 118 4 -1 6 2 3 7 -3 5 1 14
9 21 8 7 32 40 52 74 46 75 124 172 136 168 4 -1 6 1 3 6 -6 10 174 198 186
195 4 -2 7 0 5 5 -1 4 32 39 73 77 41 39 83 80 93 93 10 12 23 20 28 16 5 -3
8 -1 7 3 -2 5 17 31 42 57 25 27 55 59 68 73 12 13 22 28 22 33 0 17 52 70 62
63 6 -3 8 -2 5 4 -7 12 63 81 113 111 46 28 151 136 305 312 81 94 82 96 27
91 -49 -4 -185 15 -211 30 -29 16 -276 49 -357 48 -43 0 -111 -7 -150 -14z"/>
<path d="M2093 4360 c-42 -41 -80 -74 -84 -73 -4 1 -13 -4 -19 -12 -7 -8 -9
-15 -5 -15 7 0 -78 -102 -139 -167 -17 -17 -34 -29 -40 -26 -5 4 -6 1 -1 -6 5
-8 -19 -38 -68 -84 -108 -105 -195 -182 -204 -182 -14 0 -33 -16 -29 -24 11
-17 -103 -147 -198 -226 -59 -49 -68 -55 -77 -49 -4 2 -12 -3 -19 -11 -7 -8
-9 -15 -5 -15 4 0 -19 -28 -51 -61 -122 -127 -189 -205 -244 -281 -18 -27 -36
-48 -40 -48 -3 0 -14 -13 -23 -30 -10 -16 -23 -29 -29 -27 -6 1 -12 -5 -13
-13 -3 -17 -63 -85 -76 -85 -4 0 -14 -6 -20 -12 -7 -7 -9 -13 -4 -13 5 0 -8
-18 -30 -40 -21 -21 -42 -37 -45 -35 -4 3 -13 -2 -20 -10 -7 -8 -9 -15 -4 -15
4 0 -9 -18 -31 -40 -21 -21 -42 -37 -47 -34 -5 3 -7 1 -6 -4 3 -10 -191 -207
-204 -207 -4 0 -9 -4 -9 -10 -3 -17 -69 -90 -82 -90 -7 0 -12 -8 -12 -17 0 -9
-10 -26 -23 -38 -48 -45 -69 -108 -76 -230 -4 -63 -11 -119 -17 -124 -12 -13
-12 -73 1 -81 15 -10 13 -318 -2 -334 -16 -15 -16 -279 -1 -289 5 -4 16 -42
23 -85 7 -43 16 -76 20 -75 8 4 175 191 254 286 33 39 64 70 70 69 5 -1 10 3
11 8 1 23 150 200 169 200 6 0 11 7 11 16 0 18 11 31 225 273 74 84 160 183
190 219 30 36 59 63 64 60 5 -4 6 -1 2 6 -6 9 25 66 45 81 3 3 19 25 34 50 35
56 125 156 137 152 5 -1 7 1 4 6 -3 5 95 107 218 228 122 120 231 233 241 249
30 47 96 120 108 120 7 0 12 6 12 12 0 7 11 20 25 30 14 9 31 23 37 29 7 7 27
21 45 32 18 12 60 51 93 88 33 38 80 89 103 114 24 25 50 54 58 65 8 11 20 20
27 20 6 0 12 6 12 12 0 7 34 50 76 95 42 46 108 119 146 163 69 79 233 234
233 220 0 -4 6 -2 14 5 8 6 13 17 10 23 -5 14 49 79 146 177 79 79 126 114
141 104 8 -4 9 -3 5 4 -4 6 6 18 24 27 93 48 -25 59 -588 53 l-373 -3 -76 -75z"/>
<path d="M3853 4392 c1 -6 -136 -143 -278 -277 -24 -22 -62 -58 -86 -81 -154
-145 -283 -254 -295 -250 -8 3 -13 2 -11 -3 2 -10 -190 -186 -204 -186 -5 0
-9 -4 -9 -10 -1 -14 -72 -85 -80 -80 -4 3 -13 -2 -20 -10 -7 -8 -9 -15 -5 -15
3 0 -15 -25 -40 -55 -26 -30 -51 -52 -56 -49 -5 3 -8 2 -7 -3 5 -16 -183 -231
-235 -270 -17 -12 -35 -20 -40 -16 -6 3 -7 2 -4 -4 6 -10 -172 -190 -185 -186
-4 2 -5 -3 -2 -11 7 -19 -161 -188 -183 -184 -10 2 -18 -2 -18 -9 0 -15 -76
-83 -86 -78 -4 3 -12 -2 -19 -10 -7 -8 -9 -15 -6 -15 6 0 -103 -129 -143 -169
-10 -10 -32 -39 -50 -64 -18 -26 -35 -47 -39 -47 -4 0 -20 -20 -35 -45 -16
-25 -33 -42 -38 -39 -5 3 -8 2 -7 -3 5 -14 -64 -93 -75 -86 -6 3 -7 1 -4 -4 8
-12 -78 -108 -96 -108 -7 0 -12 -6 -12 -13 0 -17 -176 -183 -187 -176 -5 3 -7
1 -6 -4 3 -10 -372 -385 -387 -386 -5 -1 -10 -6 -10 -11 0 -9 -81 -122 -113
-155 -13 -14 -67 -92 -133 -193 -17 -26 -35 -44 -41 -40 -7 3 -8 1 -4 -5 10
-17 -138 -207 -162 -207 -4 0 -8 -7 -9 -15 -1 -8 -16 -27 -32 -42 -17 -15 -31
-30 -31 -33 0 -17 189 -189 250 -227 107 -66 172 -81 362 -83 86 -1 155 2 152
6 -6 10 31 85 46 94 6 3 19 24 31 46 12 24 24 37 31 33 7 -4 8 -3 4 4 -8 13
63 104 75 97 4 -3 6 1 5 9 -1 13 67 96 149 182 97 101 138 146 231 250 120
134 180 204 200 233 9 12 20 18 26 15 7 -4 8 -2 4 4 -4 6 3 21 14 32 11 11 39
51 62 88 22 37 49 76 58 87 142 161 238 259 255 260 6 1 9 6 8 11 -3 15 187
190 201 186 6 -2 8 0 4 4 -5 4 11 27 35 52 69 73 81 88 98 118 9 16 21 28 26
27 6 -1 17 4 23 12 7 8 9 15 4 15 -4 0 9 18 31 40 21 21 43 36 48 33 6 -3 7
-1 3 5 -4 7 9 19 31 31 21 10 46 28 57 40 10 11 23 18 28 15 4 -3 8 -2 7 3 -3
20 2 33 15 33 7 0 25 18 40 40 17 25 31 38 39 34 7 -4 9 -4 5 1 -7 7 98 132
166 200 l20 20 -14 -20 c-12 -17 -12 -18 0 -7 8 7 15 17 15 21 0 5 32 43 70
86 39 43 76 86 83 97 7 10 18 15 24 12 7 -5 8 -2 4 5 -8 12 72 97 184 196 30
27 68 67 84 89 46 64 151 175 198 208 24 17 45 34 48 38 15 18 71 50 80 45 6
-4 9 -3 8 2 -2 5 14 24 35 42 20 18 37 30 37 26 0 -4 7 -2 15 5 8 7 13 15 10
19 -2 4 14 24 36 45 21 21 39 35 39 31 0 -4 7 -2 15 5 8 7 13 15 11 19 -6 10
71 83 123 117 47 31 79 56 144 115 32 28 39 40 32 55 -4 10 -7 22 -7 27 1 4
-1 6 -5 5 -5 0 -42 32 -83 71 -41 40 -106 91 -145 114 -38 23 -73 45 -76 49
-12 18 -217 81 -271 84 -32 2 -57 0 -55 -4z"/>
<path d="M4619 3482 c-19 -15 -70 -63 -114 -106 -44 -42 -105 -101 -136 -129
-31 -29 -102 -95 -159 -147 -56 -52 -112 -102 -125 -110 -25 -16 -105 -83
-171 -142 -22 -21 -44 -34 -48 -30 -4 4 -6 2 -4 -4 4 -15 -202 -220 -216 -216
-6 2 -8 0 -4 -4 7 -7 -59 -88 -144 -178 -21 -22 -38 -43 -38 -47 0 -12 -160
-151 -178 -154 -9 -1 -16 -7 -15 -12 2 -12 -81 -96 -93 -94 -4 1 -9 -5 -10
-13 -6 -43 -219 -254 -262 -260 -9 -2 -17 -7 -17 -12 0 -5 -39 -50 -87 -99
-87 -91 -134 -145 -210 -245 -23 -30 -47 -59 -53 -65 -7 -5 -20 -21 -29 -35
-9 -14 -22 -25 -29 -25 -6 0 -12 -5 -12 -10 0 -14 -75 -105 -83 -102 -4 1 -8
-2 -10 -8 -5 -17 -65 -74 -72 -70 -4 3 -13 -2 -20 -10 -7 -8 -9 -15 -4 -15 5
0 -48 -55 -117 -123 -69 -67 -156 -156 -194 -197 -38 -41 -73 -74 -79 -72 -6
2 -8 1 -4 -3 8 -9 -62 -101 -74 -97 -5 1 -7 -2 -3 -8 6 -10 -29 -76 -44 -82
-4 -2 -22 -30 -39 -63 l-32 -60 153 -19 c83 -10 154 -22 157 -26 7 -9 232 -39
350 -45 52 -3 117 -8 143 -10 54 -5 48 -9 147 105 30 35 71 82 91 104 20 23
51 64 69 91 19 28 39 55 45 60 7 6 22 28 35 50 29 48 120 151 132 147 4 -1 7
2 6 7 -3 10 137 156 323 335 67 66 130 133 139 150 19 35 90 112 101 109 4 -1
13 5 21 15 12 16 11 16 -7 3 -11 -7 -4 1 15 19 19 17 55 45 80 62 45 31 58 43
153 148 28 30 55 53 61 52 6 -2 8 0 4 4 -9 8 61 89 77 89 5 0 10 5 10 10 0 17
76 105 88 102 6 -1 11 4 12 11 0 8 7 19 15 25 8 7 31 32 50 57 48 63 89 105
103 105 7 1 11 6 10 13 -2 6 14 28 35 49 47 47 136 120 138 113 0 -3 8 1 17 8
9 8 14 19 11 26 -4 11 127 168 168 202 10 7 14 70 18 245 7 350 5 659 -5 659
-1 0 -17 -13 -36 -28z"/>
<path d="M4665 1940 c-4 -6 -10 -8 -15 -5 -4 3 -13 -2 -20 -10 -7 -8 -9 -15
-4 -15 4 0 -7 -16 -26 -35 -18 -19 -36 -32 -40 -30 -8 5 -48 -35 -40 -41 3 -2
-31 -42 -75 -90 -44 -48 -90 -101 -103 -118 -47 -63 -154 -166 -170 -164 -9 2
-17 -2 -17 -9 0 -17 -70 -84 -92 -87 -10 -2 -18 -7 -18 -12 0 -18 -79 -103
-89 -97 -6 3 -8 3 -4 -2 16 -18 -44 -88 -76 -90 -5 0 -10 -9 -12 -20 -4 -25
-64 -77 -82 -70 -7 2 -11 1 -8 -4 5 -8 -80 -86 -94 -86 -12 -1 -30 -17 -26
-24 7 -10 -66 -81 -79 -78 -5 1 -10 -6 -10 -15 0 -9 -19 -37 -43 -63 -23 -25
-54 -64 -68 -85 -15 -22 -30 -40 -34 -40 -4 0 -23 -24 -43 -53 -20 -28 -57
-74 -83 -102 -26 -27 -41 -41 -33 -30 13 18 13 19 -3 6 -10 -7 -16 -17 -13
-21 2 -4 -34 -45 -80 -91 -47 -46 -85 -90 -85 -96 0 -16 141 -17 250 -2 41 6
175 12 297 13 137 1 226 6 235 13 7 6 38 16 68 23 95 22 179 58 263 114 104
68 267 227 292 284 10 23 22 42 27 42 4 0 8 8 8 18 1 29 48 127 60 124 6 -1 9
2 5 7 -3 6 4 20 15 31 24 24 75 171 86 245 4 28 12 53 18 57 15 10 13 645 -3
661 -6 6 -11 21 -11 34 0 24 -14 31 -25 13z"/>
</g>
</svg>
