<?xml version="1.0" standalone="no"?>
<!DOCTYPE svg PUBLIC "-//W3C//DTD SVG 20010904//EN"
 "http://www.w3.org/TR/2001/REC-SVG-20010904/DTD/svg10.dtd">
<svg version="1.0" xmlns="http://www.w3.org/2000/svg"
 width="480.000000pt" height="480.000000pt" viewBox="0 0 480.000000 480.000000"
 preserveAspectRatio="xMidYMid meet">
<metadata>
Created by potrace 1.15, written by Peter Selinger 2001-2017
</metadata>
<g transform="translate(0.000000,480.000000) scale(0.100000,-0.100000)"
fill="#000000" stroke="none">
<path d="M2323 4630 c-106 -14 -197 -36 -261 -66 -160 -74 -186 -88 -217 -116
-19 -16 -39 -27 -44 -24 -5 3 -14 -1 -21 -9 -7 -8 -10 -15 -6 -15 4 0 -19 -26
-50 -57 -32 -32 -61 -57 -66 -55 -5 1 -7 -2 -4 -6 3 -5 -3 -17 -14 -27 -34
-31 -140 -261 -158 -344 -14 -61 -17 -127 -17 -341 1 -239 3 -271 21 -325 11
-34 28 -70 37 -80 8 -11 27 -34 42 -52 36 -44 109 -83 156 -83 22 0 39 4 39 8
0 9 58 35 80 36 8 1 13 5 12 9 -2 5 7 21 21 35 59 63 73 129 52 238 -21 108
-19 239 5 381 23 131 49 245 59 253 4 3 15 24 25 47 22 49 51 78 131 128 33
21 63 42 67 48 8 13 176 25 341 26 115 1 207 -13 207 -30 0 -5 6 -9 14 -9 8 0
28 -11 44 -25 35 -29 53 -91 77 -260 9 -60 19 -117 22 -125 3 -8 5 -23 4 -33
-1 -10 2 -24 7 -30 27 -33 44 -432 33 -738 l-5 -117 -190 -6 c-384 -12 -706
-12 -706 -1 0 16 -365 7 -455 -11 -38 -7 -96 -27 -128 -44 -31 -16 -63 -30
-70 -30 -7 0 -44 -15 -82 -34 -99 -49 -183 -133 -231 -233 -21 -43 -41 -80
-45 -83 -8 -6 -35 -117 -49 -200 -21 -129 -23 -366 -5 -620 12 -177 15 -297
11 -435 -9 -238 17 -555 44 -555 4 0 12 -18 19 -39 11 -40 73 -138 98 -156 8
-6 26 -35 41 -65 26 -51 34 -58 112 -98 69 -35 103 -46 185 -57 164 -23 391
-43 715 -64 316 -20 551 -17 715 9 95 15 339 71 345 79 3 4 25 13 50 20 93 27
173 77 242 149 73 77 113 147 149 262 13 41 27 77 30 80 11 8 37 184 54 360
20 211 44 389 56 415 5 11 19 97 30 190 30 232 32 499 5 608 -10 42 -23 77
-28 77 -5 0 -7 4 -4 9 4 5 3 11 -1 13 -5 1 -21 30 -38 62 -16 33 -52 82 -80
110 -27 27 -50 55 -50 61 -1 5 -7 9 -14 7 -11 -2 -68 32 -81 49 -3 3 -39 24
-80 47 -63 34 -75 44 -73 64 1 12 6 72 12 133 6 68 6 155 0 230 -11 147 -48
407 -60 420 -5 5 -9 47 -9 95 -1 132 -18 324 -36 392 -18 72 -43 123 -79 166
-15 18 -23 37 -19 43 4 8 3 9 -4 5 -7 -4 -19 9 -32 33 -11 22 -36 52 -55 67
-19 14 -32 31 -28 38 3 6 3 8 -1 4 -4 -3 -27 8 -51 27 -24 18 -81 45 -127 60
-46 15 -93 34 -105 41 -12 8 -66 26 -120 40 -110 29 -284 39 -410 24z m260
-2888 c26 -19 60 -52 75 -75 15 -23 30 -44 33 -47 29 -24 45 -148 30 -239 -17
-106 -90 -183 -188 -198 -21 -3 -43 -10 -50 -15 -7 -6 -19 -5 -30 0 -10 5 -43
18 -73 27 -85 28 -146 62 -169 94 -33 45 -54 146 -48 219 10 106 32 140 133
211 l89 62 75 -3 c66 -3 81 -7 123 -36z"/>
</g>
</svg>
