<?xml version="1.0" standalone="no"?>
<!DOCTYPE svg PUBLIC "-//W3C//DTD SVG 20010904//EN"
 "http://www.w3.org/TR/2001/REC-SVG-20010904/DTD/svg10.dtd">
<svg version="1.0" xmlns="http://www.w3.org/2000/svg"
 width="480.000000pt" height="480.000000pt" viewBox="0 0 480.000000 480.000000"
 preserveAspectRatio="xMidYMid meet">
<metadata>
Created by potrace 1.15, written by Peter Selinger 2001-2017
</metadata>
<g transform="translate(0.000000,480.000000) scale(0.100000,-0.100000)"
fill="#000000" stroke="none">
<path d="M2390 4185 c-8 -2 -85 -11 -170 -20 -173 -19 -203 -27 -217 -58 -6
-12 -34 -121 -64 -242 l-54 -220 -55 -27 c-78 -38 -194 -118 -266 -182 l-62
-55 -103 46 c-239 105 -439 122 -528 44 -47 -41 -227 -306 -279 -410 -39 -79
-47 -104 -50 -164 -4 -55 0 -78 14 -105 28 -53 337 -278 481 -350 l62 -32 5
-57 c4 -32 10 -87 14 -122 l9 -65 -90 -95 c-135 -145 -238 -270 -258 -315 -23
-51 -24 -127 -3 -172 15 -31 92 -126 215 -267 59 -66 150 -132 216 -154 95
-33 231 12 383 125 l64 48 96 -58 c91 -56 243 -121 341 -147 l45 -13 18 -165
c9 -91 23 -180 30 -198 38 -91 192 -125 416 -90 115 17 196 41 233 67 63 45
97 161 97 337 l1 106 87 40 c106 49 236 134 317 208 l60 55 125 -63 c313 -158
398 -132 565 175 31 57 70 123 86 147 57 83 89 163 89 226 0 97 -31 148 -154
245 -109 87 -265 231 -296 274 -35 48 -67 202 -48 227 25 32 175 198 255 282
95 101 123 150 123 215 0 69 -32 125 -111 197 -38 34 -88 89 -111 122 -112
161 -168 202 -262 192 -75 -8 -138 -43 -240 -135 -130 -117 -119 -115 -218
-49 -83 55 -260 147 -284 147 -15 0 -27 55 -54 255 -14 104 -26 157 -38 174
-24 33 -76 58 -141 71 -48 9 -253 12 -291 5z m255 -1190 c71 -34 176 -137 224
-218 59 -100 94 -218 99 -337 5 -128 -8 -196 -56 -292 -71 -144 -240 -274
-403 -313 -76 -17 -197 -19 -271 -4 -191 40 -348 184 -402 368 -20 70 -21 218
-1 296 48 188 207 371 413 474 94 47 155 61 253 58 70 -2 96 -8 144 -32z"/>
</g>
</svg>
