<?xml version="1.0" standalone="no"?>
<!DOCTYPE svg PUBLIC "-//W3C//DTD SVG 20010904//EN"
 "http://www.w3.org/TR/2001/REC-SVG-20010904/DTD/svg10.dtd">
<svg version="1.0" xmlns="http://www.w3.org/2000/svg"
 width="480.000000pt" height="480.000000pt" viewBox="0 0 480.000000 480.000000"
 preserveAspectRatio="xMidYMid meet">
<metadata>
Created by potrace 1.15, written by Peter Selinger 2001-2017
</metadata>
<g transform="translate(0.000000,480.000000) scale(0.100000,-0.100000)"
fill="#000000" stroke="none">
<path d="M2535 4545 c-16 -7 -33 -11 -38 -8 -4 2 -7 1 -6 -4 5 -29 -7 -46 -48
-73 -27 -16 -54 -28 -60 -25 -7 2 -12 0 -10 -4 2 -10 -37 -40 -143 -108 -41
-26 -77 -51 -78 -56 -7 -14 -83 -48 -94 -41 -7 4 -8 3 -4 -4 4 -7 -9 -20 -31
-32 -97 -53 -222 -161 -273 -235 -17 -25 -41 -52 -54 -60 -13 -9 -31 -31 -41
-50 -11 -18 -23 -31 -28 -28 -6 3 -7 1 -4 -4 4 -6 2 -24 -4 -40 -7 -23 -6 -41
5 -73 8 -24 12 -48 9 -53 -3 -6 -1 -7 4 -4 6 4 18 -2 28 -13 9 -10 48 -31 86
-46 38 -15 69 -32 69 -37 0 -6 11 -25 25 -42 13 -18 21 -36 17 -40 -4 -5 -2
-5 4 -2 11 6 51 -21 103 -70 13 -12 36 -27 52 -33 16 -7 26 -17 22 -23 -3 -5
-1 -7 4 -4 6 4 33 -8 59 -26 27 -19 72 -46 99 -62 28 -16 58 -37 68 -46 9 -10
40 -26 67 -36 36 -13 49 -22 45 -33 -4 -8 -3 -11 1 -7 4 3 30 -6 57 -21 36
-19 52 -23 55 -14 2 6 9 12 15 12 7 0 25 12 41 26 31 28 34 45 66 389 6 66 13
130 16 142 l4 22 63 -21 c34 -12 64 -24 67 -28 3 -4 16 -11 30 -15 26 -7 161
-83 170 -95 3 -4 41 -26 85 -50 44 -24 85 -48 90 -54 6 -7 31 -24 58 -39 26
-16 45 -32 42 -37 -3 -6 0 -7 7 -5 20 8 203 -169 193 -185 -5 -8 -4 -11 3 -6
6 3 20 -11 33 -31 12 -21 30 -47 39 -58 70 -82 200 -429 200 -532 0 -17 6 -33
13 -36 9 -3 11 -59 9 -245 -3 -247 3 -301 36 -341 42 -51 124 -43 165 16 33
49 44 99 54 253 14 218 9 335 -16 428 -13 45 -27 82 -31 82 -8 0 -61 119 -88
200 -8 25 -18 47 -22 50 -3 3 -24 52 -45 108 -21 57 -43 109 -49 115 -24 25
-67 108 -61 117 4 6 3 9 -2 8 -4 -2 -39 31 -77 72 -38 41 -79 83 -90 92 -12 9
-21 22 -21 29 0 7 -8 13 -18 15 -11 1 -35 19 -55 39 -21 20 -57 48 -82 63 -25
14 -54 33 -65 42 -11 9 -39 27 -62 40 -23 13 -40 27 -37 31 3 5 -1 6 -9 4 -7
-3 -29 5 -48 17 -19 13 -70 39 -114 57 -44 18 -95 47 -114 63 -32 28 -147 89
-188 100 -16 4 -18 19 -17 174 1 93 5 210 9 259 7 100 -1 136 -37 158 -34 22
-89 27 -123 12z"/>
<path d="M857 2850 c-16 -5 -34 -14 -42 -20 -32 -26 -63 -176 -68 -327 -1 -40
-6 -73 -11 -73 -12 0 -2 -226 11 -242 6 -7 14 -28 18 -46 8 -41 74 -205 85
-212 4 -3 29 -66 56 -140 26 -74 51 -137 55 -140 3 -3 23 -40 43 -83 21 -43
51 -93 67 -112 17 -19 28 -39 24 -45 -4 -6 -3 -9 2 -8 4 2 49 -36 98 -83 129
-124 187 -175 213 -188 12 -7 20 -17 16 -23 -4 -7 -3 -8 4 -4 13 8 67 -17 97
-44 11 -10 76 -46 145 -80 69 -34 136 -67 150 -74 14 -7 24 -18 22 -25 -1 -7
1 -10 5 -8 5 3 35 -12 67 -33 32 -22 80 -44 105 -51 l46 -11 -1 -167 c-1 -91
-5 -209 -9 -262 -6 -81 -5 -101 10 -130 23 -45 31 -49 93 -49 53 0 68 9 120
73 4 5 30 23 58 40 104 65 199 130 202 139 6 15 82 49 94 42 7 -4 8 -3 4 4 -4
7 10 20 36 33 24 12 45 25 48 29 3 4 32 24 65 45 33 21 73 51 89 67 17 15 33
29 38 29 4 1 12 2 17 3 12 1 26 15 27 27 1 5 2 13 3 18 0 4 11 19 24 32 12 13
43 49 67 79 25 30 48 57 52 60 20 15 35 86 26 125 -13 55 -37 77 -124 115 -43
19 -74 39 -74 47 0 8 -15 29 -32 46 -18 18 -31 36 -30 40 1 5 -1 6 -6 3 -5 -3
-20 6 -33 20 -13 14 -37 32 -52 40 -16 9 -25 20 -21 26 4 7 3 8 -4 4 -11 -6
-29 4 -172 99 -36 24 -99 61 -140 82 -41 21 -85 48 -98 61 -50 52 -135 44
-165 -15 -8 -15 -20 -88 -27 -160 -7 -73 -16 -133 -20 -133 -7 0 -27 -201 -24
-237 2 -12 -27 -5 -63 17 -10 6 -49 21 -88 34 -40 14 -69 29 -67 36 1 6 -1 9
-6 6 -5 -3 -33 11 -63 30 -30 19 -76 47 -104 61 -27 14 -59 33 -70 42 -11 10
-48 34 -83 54 -95 56 -179 128 -262 226 -56 66 -63 78 -54 93 4 7 3 8 -4 4 -7
-4 -19 9 -32 33 -11 22 -30 55 -43 73 -12 19 -38 79 -56 133 -19 55 -38 102
-42 105 -12 8 -40 127 -54 226 -9 61 -11 157 -8 295 3 154 1 215 -9 248 -20
66 -78 99 -141 81z"/>
</g>
</svg>
